<svg width="394.7px" height="82.4px" xmlns="http://www.w3.org/2000/svg" viewBox="52.650000000000006 33.8 394.7 82.4" style="background: rgba(0, 0, 0, 0);" preserveAspectRatio="xMidYMid"><defs><linearGradient id="editing-sticker-gradient" x1="0.5" y1="0.2" x2="0.5" y2="0.8"><stop offset="0" stop-color="#fd9"></stop><stop offset="1" stop-color="#9df"></stop></linearGradient><filter id="editing-sticker" x="-100%" y="-100%" width="300%" height="300%"><feMorphology operator="erode" radius="1" in="SourceAlpha" result="alpha-erode"></feMorphology><feConvolveMatrix order="3,3" divisor="1" kernelMatrix="0 1 0 1 1 1 0 1 0" in="alpha-erode" result="alpha-round"></feConvolveMatrix><feMorphology operator="dilate" radius="3.5" in="alpha-round" result="dilate-shadow"></feMorphology><feGaussianBlur in="dilate-shadow" stdDeviation="1.5" result="shadow"></feGaussianBlur><feFlood flood-color="#fff" result="flood-sticker"></feFlood><feComposite operator="in" in="flood-sticker" in2="alpha-round" result="comp-sticker"></feComposite><feMorphology operator="dilate" radius="3" in="comp-sticker" result="morph-sticker"></feMorphology><feConvolveMatrix order="3,3" divisor="1" kernelMatrix="0 1 0 1 1 1 0 1 0" in="morph-sticker" result="sticker"></feConvolveMatrix><feMerge><feMergeNode in="shadow"></feMergeNode><feMergeNode in="sticker"></feMergeNode><feMergeNode in="SourceGraphic"></feMergeNode></feMerge></filter></defs><g filter="url(#editing-sticker)"><g transform="translate(112.31498104333878, 87.01999950408936)"><path d="M3.96-5.38L3.96-5.38L4.09-3.03L4.09-3.03Q4.09-2.84 4.08-2.32L4.08-2.32L4.08-2.32Q4.06-1.80 3.69-1.40L3.69-1.40L3.69-1.40Q3.32-1.00 2.79-1.00L2.79-1.00L2.79-1.00Q2.26-1.00 1.97-1.03L1.97-1.03L1.97-1.03Q0.90-1.03 0.90-1.97L0.90-1.97L0.90-1.97Q0.90-2.74 1.61-8.20L1.61-8.20L1.61-8.20Q2.32-13.66 2.51-15.24L2.51-15.24L2.51-15.24Q2.71-16.82 2.85-17.90L2.85-17.90L2.85-17.90Q3.00-18.98 3.06-19.50L3.06-19.50L3.06-19.50Q3.13-20.01 3.25-20.53L3.25-20.53L3.25-20.53Q3.38-21.04 3.64-21.37L3.64-21.37L3.64-21.37Q4.13-21.98 5.51-21.98L5.51-21.98L5.51-21.98Q7.83-20.82 10.28-15.40L10.28-15.40L10.28-15.40Q12.02-11.54 12.60-10.51L12.60-10.51L12.60-10.51Q13.18-9.47 13.73-9.09L13.73-9.09L20.17-20.30L20.17-20.30Q20.85-20.79 21.21-20.79L21.21-20.79L21.21-20.79Q22.24-20.79 22.78-19.85L22.78-19.85L22.78-19.85Q23.33-18.92 23.70-17.58L23.70-17.58L23.70-17.58Q24.07-16.24 24.35-14.63L24.35-14.63L24.35-14.63Q24.62-13.02 24.83-11.26L24.83-11.26L24.83-11.26Q25.04-9.51 25.23-7.83L25.23-7.83L25.23-7.83Q25.68-3.80 25.93-2.77L25.93-2.77L25.93-2.77Q26.17-1.74 26.17-1.31L26.17-1.31L26.17-1.31Q26.17-0.87 25.88-0.47L25.88-0.47L25.88-0.47Q25.59-0.06 25.07-0.06L25.07-0.06L25.07-0.06Q24.56-0.06 24.04-0.47L24.04-0.47L24.04-0.47Q23.53-0.87 23.41-1.47L23.41-1.47L23.41-1.47Q23.30-2.06 23.19-3.03L23.19-3.03L23.19-3.03Q23.07-4.00 22.91-5.20L22.91-5.20L22.91-5.20Q22.75-6.41 22.59-7.75L22.59-7.75L22.59-7.75Q22.43-9.09 22.27-10.31L22.27-10.31L22.27-10.31Q22.11-11.54 21.98-12.49L21.98-12.49L21.98-12.49Q21.85-13.44 21.79-13.92L21.79-13.92L21.79-13.92Q21.79-14.57 21.75-15.11L21.75-15.11L21.75-15.11Q21.72-15.66 21.50-15.79L21.50-15.79L21.50-15.79Q21.27-15.92 20.80-15.48L20.80-15.48L20.80-15.48Q20.33-15.05 19.50-13.73L19.50-13.73L19.50-13.73Q17.69-10.92 14.28-4.29L14.28-4.29L14.28-4.29Q13.83-3.48 13.08-3.93L13.08-3.93L13.08-3.93Q12.21-4.42 11.60-6.41L11.60-6.41L5.67-19.01L5.67-19.01Q4.90-17.47 4.25-8.77L4.25-8.77L4.25-8.77Q4.16-7.70 4.13-6.96L4.13-6.96L4.13-6.96Q3.96-6.16 3.96-5.38ZM44.99-11.79L44.99-11.79L45.89-11.79L45.89-11.79Q46.44-11.79 46.94-11.70L46.94-11.70L46.94-11.70Q47.44-11.60 47.44-10.99L47.44-10.99L47.44-10.99Q47.66-9.70 45.92-9.73L45.92-9.73L45.92-9.73Q45.44-9.76 45.04-9.80L45.04-9.80L45.04-9.80Q44.63-9.83 44.38-9.81L44.38-9.81L44.38-9.81Q44.12-9.80 44.15-9.64L44.15-9.64L44.15-9.64Q44.47-8.70 44.84-7.54L44.84-7.54L44.84-7.54Q45.21-6.38 45.67-5.22L45.67-5.22L45.67-5.22Q46.83-2.35 47.86-1.10L47.86-1.10L47.86-1.10Q47.31-0.42 46.58 0.03L46.58 0.03L46.58 0.03Q45.86 0.48 45.81 0.48L45.81 0.48L45.81 0.48Q45.76 0.48 45.73 0.45L45.73 0.45L41.19-9.12L32.39-6.96L32.07-5.61L32.07-5.61Q31.13-1.90 29.97-0.45L29.97-0.45L29.97-0.45Q29.78-0.13 29.17-0.39L29.17-0.39L29.17-0.39Q28.13-0.77 28.13-1.03L28.13-1.03L28.13-1.03Q28.13-1.10 28.81-2.90L28.81-2.90L28.81-2.90Q29.49-4.71 30.18-6.56L30.18-6.56L30.18-6.56Q30.87-8.41 31.63-10.44L31.63-10.44L31.63-10.44Q32.39-12.47 33.06-14.31L33.06-14.31L33.06-14.31Q33.74-16.15 34.29-17.61L34.29-17.61L34.29-17.61Q34.84-19.08 35.06-19.74L35.06-19.74L35.06-19.74Q35.29-20.40 35.37-20.90L35.37-20.90L35.37-20.90Q35.45-21.40 35.61-21.75L35.61-21.75L35.61-21.75Q35.93-22.49 37.22-22.49L37.22-22.49L37.22-22.49Q38.61-21.72 39.36-20.48L39.36-20.48L39.36-20.48Q40.12-19.24 40.65-17.82L40.65-17.82L40.65-17.82Q41.19-16.40 41.70-14.95L41.70-14.95L41.70-14.95Q42.22-13.50 43.09-12.31L43.09-12.31L43.09-12.31Q43.38-11.86 43.96-11.83L43.96-11.83L43.96-11.83Q44.54-11.79 44.99-11.79ZM36.93-18.76L36.93-18.76L36.93-18.76Q36.67-16.79 35.77-14.73L35.77-14.73L35.77-14.73Q34.87-12.67 34.32-11.52L34.32-11.52L34.32-11.52Q33.77-10.38 33.39-9.41L33.39-9.41L33.39-9.41Q35.58-9.41 38.77-10.70L38.77-10.70L38.77-10.70Q39.57-11.05 40.32-11.34L40.32-11.34L40.32-11.34Q38.80-17.82 36.93-18.76ZM64.23-15.82L64.23-15.82L61.36-15.89L61.36-15.89Q60.23-15.89 58.75-15.66L58.75-15.66L58.75-15.66Q58.68-14.41 58.49-12.41L58.49-12.41L58.49-12.41Q57.81-5.32 57.81-3.21L57.81-3.21L57.81-3.21Q57.81-1.10 57.88-0.23L57.88-0.23L54.85 0L55.85-15.92L48.98-16.31L48.98-16.31Q48.73-16.31 48.58-16.73L48.58-16.73L48.58-16.73Q48.44-17.14 48.44-17.50L48.44-17.50L48.44-17.50Q48.44-17.85 48.73-18.27L48.73-18.27L48.73-18.27Q49.02-18.69 49.40-18.69L49.40-18.69L49.40-18.69Q51.76-18.59 54.14-18.37L54.14-18.37L54.14-18.37Q58.56-17.98 61.65-17.98L61.65-17.98L63.65-18.05L63.65-18.05Q66-18.11 68.32-18.56L68.32-18.56L68.32-18.56Q68.84-18.47 68.96-16.95L68.96-16.95L68.96-16.95Q69.00-16.63 69.00-16.44L69.00-16.44L69.00-16.44Q66.87-15.82 64.23-15.82ZM71.58-14.08L71.58-14.08L71.51-22.11L74.09-22.01L73.80-3.13L90.78-2.64L90.78-2.64Q91.30-2.48 91.30-2.09L91.30-2.09L91.30-2.09Q91.30-1.71 90.81-1.29L90.81-1.29L90.81-1.29Q89.88-0.45 88.69-0.45L88.69-0.45L88.69-0.45Q88.40-0.45 88.08-0.52L88.08-0.52L70.77-0.68L70.77-0.68Q71.58-3.67 71.58-14.08ZM93.33-5.41L93.33-5.41L93.33-5.41Q92.55-7.15 92.55-9.51L92.55-9.51L92.55-9.51Q92.55-11.86 93.31-13.68L93.31-13.68L93.31-13.68Q94.07-15.50 95.39-16.82L95.39-16.82L95.39-16.82Q98.19-19.56 102.42-19.56L102.42-19.56L102.42-19.56Q106.83-19.56 109.70-17.53L109.70-17.53L109.70-17.53Q112.92-15.21 112.92-10.89L112.92-10.89L112.92-10.89Q112.92-5.54 110.46-3.00L110.46-3.00L110.46-3.00Q107.99-0.45 102.77-0.45L102.77-0.45L102.77-0.45Q95.52-0.45 93.33-5.41ZM95.20-10.15L95.20-10.15L95.20-10.15Q95.20-2.55 102.87-2.55L102.87-2.55L102.87-2.55Q106.64-2.55 108.99-4.80L108.99-4.80L108.99-4.80Q111.34-7.03 111.34-10.63L111.34-10.63L111.34-10.63Q111.34-14.02 108.54-15.79L108.54-15.79L108.54-15.79Q106.15-17.34 102.51-17.34L102.51-17.34L102.51-17.34Q99.61-17.34 97.39-15.24L97.39-15.24L97.39-15.24Q95.20-13.15 95.20-10.15ZM129.74-14.08L129.74-14.08L129.68-22.11L132.26-22.01L131.97-3.13L148.95-2.64L148.95-2.64Q149.47-2.48 149.47-2.09L149.47-2.09L149.47-2.09Q149.47-1.71 148.98-1.29L148.98-1.29L148.98-1.29Q148.05-0.45 146.86-0.45L146.86-0.45L146.86-0.45Q146.57-0.45 146.24-0.52L146.24-0.52L128.94-0.68L128.94-0.68Q129.74-3.67 129.74-14.08ZM154.20-20.30L161.39-20.46L161.39-20.46Q164.61-20.46 165.68-20.04L165.68-20.04L165.68-18.47L165.68-18.47Q164.81-18.34 163.29-18.32L163.29-18.32L163.29-18.32Q161.78-18.30 160.07-18.27L160.07-18.27L160.07-18.27Q155.30-18.18 153.56-17.79L153.56-17.79L153.56-17.79Q153.01-15.21 153.04-14.28L153.04-14.28L153.04-14.28Q153.08-13.34 153.11-12.83L153.11-12.83L153.11-12.83Q153.24-11.57 153.24-9.86L153.24-9.86L153.24-9.86Q155.43-9.86 158.25-10.25L158.25-10.25L158.25-10.25Q161.07-10.63 162.62-10.81L162.62-10.81L162.62-10.81Q164.16-10.99 165.81-10.99L165.81-10.99L165.81-9.22L153.46-7.67L153.66-2.38L153.66-2.38Q156.85-2.38 160.18-2.69L160.18-2.69L160.18-2.69Q163.52-3.00 165.24-3.14L165.24-3.14L165.24-3.14Q166.97-3.29 168.90-3.29L168.90-3.29L168.90-3.29Q168.90-2.64 168.51-2.06L168.51-2.06L168.51-2.06Q167.74-1.03 167.13-1.45L167.13-1.45L167.13-1.45Q161.46-0.84 156.99-0.48L156.99-0.48L156.99-0.48Q152.53-0.13 150.98 0L150.98 0L151.11-20.56L151.11-20.56Q151.95-20.30 154.20-20.30L154.20-20.30ZM170.03-2.82L170.03-2.82L170.03-2.82Q170.03-3.42 170.53-3.88L170.53-3.88L170.53-3.88Q171.03-4.35 171.30-4.53L171.30-4.53L171.30-4.53Q171.57-4.71 171.67-4.80L171.67-4.80L171.67-4.80Q171.83-1.87 175.63-1.87L175.63-1.87L175.63-1.87Q178.63-1.87 182.63-3.74L182.63-3.74L182.63-3.74Q185.46-5.03 186.43-6.38L186.43-6.38L186.43-6.38Q186.75-6.80 186.75-7.07L186.75-7.07L186.75-7.07Q186.75-7.35 186.66-7.51L186.66-7.51L173.28-10.51L173.28-10.51Q172.70-10.63 172.15-11.05L172.15-11.05L172.15-11.05Q171.16-11.76 171.16-12.34L171.16-12.34L171.16-12.34Q171.16-14.57 174.31-16.37L174.31-16.37L174.31-16.37Q177.79-18.34 183.63-19.34L183.63-19.34L183.63-19.34Q184.95-19.56 185.59-19.59L185.59-19.59L185.59-19.59Q185.79-19.53 186.19-19.48L186.19-19.48L186.19-19.48Q186.59-19.43 187.01-19.34L187.01-19.34L187.01-19.34Q188.01-19.11 187.85-18.50L187.85-18.50L187.85-18.50Q187.85-17.40 183.66-16.76L183.66-16.76L183.66-16.76Q178.25-15.95 176.91-15.40L176.91-15.40L176.91-15.40Q175.57-14.86 174.97-14.28L174.97-14.28L174.97-14.28Q174.38-13.70 174.35-12.89L174.35-12.89L174.35-12.89Q174.35-12.73 175.09-12.54L175.09-12.54L175.09-12.54Q175.83-12.34 176.86-12.07L176.86-12.07L176.86-12.07Q177.89-11.79 179.53-11.34L179.53-11.34L179.53-11.34Q183.53-10.25 189.33-8.57L189.33-8.57L189.33-8.57Q189.65-7.86 189.65-7.25L189.65-7.25L189.65-7.25Q189.65-5.54 187.66-3.96L187.66-3.96L187.66-3.96Q185.40-2.19 181.40-0.97L181.40-0.97L181.40-0.97Q178.08 0.03 176.12 0.03L176.12 0.03L176.12 0.03Q174.47 0.03 172.99-0.55L172.99-0.55L172.99-0.55Q171.51-1.13 170.77-1.68L170.77-1.68L170.77-1.68Q170.03-2.22 170.03-2.82ZM192.23-5.41L192.23-5.41L192.23-5.41Q191.46-7.15 191.46-9.51L191.46-9.51L191.46-9.51Q191.46-11.86 192.22-13.68L192.22-13.68L192.22-13.68Q192.97-15.50 194.29-16.82L194.29-16.82L194.29-16.82Q197.10-19.56 201.32-19.56L201.32-19.56L201.32-19.56Q205.73-19.56 208.60-17.53L208.60-17.53L208.60-17.53Q211.83-15.21 211.83-10.89L211.83-10.89L211.83-10.89Q211.83-5.54 209.36-3.00L209.36-3.00L209.36-3.00Q206.89-0.45 201.67-0.45L201.67-0.45L201.67-0.45Q194.42-0.45 192.23-5.41ZM194.10-10.15L194.10-10.15L194.10-10.15Q194.10-2.55 201.77-2.55L201.77-2.55L201.77-2.55Q205.54-2.55 207.89-4.80L207.89-4.80L207.89-4.80Q210.25-7.03 210.25-10.63L210.25-10.63L210.25-10.63Q210.25-14.02 207.44-15.79L207.44-15.79L207.44-15.79Q205.06-17.34 201.42-17.34L201.42-17.34L201.42-17.34Q198.52-17.34 196.29-15.24L196.29-15.24L196.29-15.24Q194.10-13.15 194.10-10.15ZM228.65-15.82L228.65-15.82L225.78-15.89L225.78-15.89Q224.65-15.89 223.17-15.66L223.17-15.66L223.17-15.66Q223.10-14.41 222.91-12.41L222.91-12.41L222.91-12.41Q222.23-5.32 222.23-3.21L222.23-3.21L222.23-3.21Q222.23-1.10 222.30-0.23L222.30-0.23L219.27 0L220.27-15.92L213.40-16.31L213.40-16.31Q213.15-16.31 213.00-16.73L213.00-16.73L213.00-16.73Q212.86-17.14 212.86-17.50L212.86-17.50L212.86-17.50Q212.86-17.85 213.15-18.27L213.15-18.27L213.15-18.27Q213.44-18.69 213.82-18.69L213.82-18.69L213.82-18.69Q216.18-18.59 218.56-18.37L218.56-18.37L218.56-18.37Q222.98-17.98 226.07-17.98L226.07-17.98L228.07-18.05L228.07-18.05Q230.42-18.11 232.74-18.56L232.74-18.56L232.74-18.56Q233.26-18.47 233.38-16.95L233.38-16.95L233.38-16.95Q233.42-16.63 233.42-16.44L233.42-16.44L233.42-16.44Q231.29-15.82 228.65-15.82ZM238.41-9.09L238.41-9.09L238.41-9.09Q238.32-7.99 238.32-5.98L238.32-5.98L238.32-5.98Q238.32-3.96 238.93-1.10L238.93-1.10L236.38 0.19L235.22-8.57L235.22-8.57Q234.09-8.73 234.09-9.35L234.09-9.35L234.09-9.35Q234.09-9.80 234.63-10.41L234.63-10.41L234.63-10.41Q235.16-11.02 235.42-11.42L235.42-11.42L235.42-11.42Q235.67-11.83 235.72-12.33L235.72-12.33L235.72-12.33Q235.77-12.83 235.87-14.12L235.87-14.12L235.87-14.12Q235.96-15.40 236.04-16.85L236.04-16.85L236.04-16.85Q236.12-18.30 236.20-19.59L236.20-19.59L236.20-19.59Q236.29-20.88 236.29-21.40L236.29-21.40L236.29-21.40Q236.99-22.11 237.32-22.27L237.32-22.27L237.32-22.27Q238.12-22.69 238.41-21.95L238.41-21.95L238.22-11.79L238.22-11.79Q246.18-11.79 247.79-12.83L247.79-12.83L247.79-23.01L247.79-23.01Q247.98-23.56 249.59-23.56L249.59-23.56L249.59-23.56Q249.95-23.56 250.17-23.53L250.17-23.53L250.17-23.53Q250.17-22.91 250.22-21.67L250.22-21.67L250.22-21.67Q250.27-20.43 250.32-18.85L250.32-18.85L250.32-18.85Q250.37-17.27 250.43-15.52L250.43-15.52L250.43-15.52Q250.50-13.76 250.56-12.18L250.56-12.18L250.56-12.18Q250.66-8.89 250.72-7.35L250.72-7.35L250.72-7.35Q250.95-3.48 252.30-1.10L252.30-1.10L252.30-1.10Q250.85-0.52 249.11-0.52L249.11-0.52L249.11-0.52Q247.63-4.19 247.53-10.15L247.53-10.15L247.53-10.15Q245.41-10.22 244.63-10.22L244.63-10.22L244.63-10.22Q243.86-10.22 242.89-10.12L242.89-10.12L242.89-10.12Q240.89-9.99 238.41-9.09ZM254.88-5.41L254.88-5.41L254.88-5.41Q254.11-7.15 254.11-9.51L254.11-9.51L254.11-9.51Q254.11-11.86 254.86-13.68L254.86-13.68L254.86-13.68Q255.62-15.50 256.94-16.82L256.94-16.82L256.94-16.82Q259.75-19.56 263.97-19.56L263.97-19.56L263.97-19.56Q268.38-19.56 271.25-17.53L271.25-17.53L271.25-17.53Q274.47-15.21 274.47-10.89L274.47-10.89L274.47-10.89Q274.47-5.54 272.01-3.00L272.01-3.00L272.01-3.00Q269.54-0.45 264.32-0.45L264.32-0.45L264.32-0.45Q257.07-0.45 254.88-5.41ZM256.75-10.15L256.75-10.15L256.75-10.15Q256.75-2.55 264.42-2.55L264.42-2.55L264.42-2.55Q268.19-2.55 270.54-4.80L270.54-4.80L270.54-4.80Q272.89-7.03 272.89-10.63L272.89-10.63L272.89-10.63Q272.89-14.02 270.09-15.79L270.09-15.79L270.09-15.79Q267.71-17.34 264.06-17.34L264.06-17.34L264.06-17.34Q261.16-17.34 258.94-15.24L258.94-15.24L258.94-15.24Q256.75-13.15 256.75-10.15Z" fill="url(#editing-sticker-gradient)" stroke="#000" stroke-width="2.5"></path></g></g><style>text {
  font-size: 64px;
  font-family: Arial Black;
  dominant-baseline: central;
  text-anchor: middle;
}</style></svg>