<svg width="366.58144531249997px" height="68px" xmlns="http://www.w3.org/2000/svg" viewBox="66.70927734375002 41 366.58144531249997 68" style="background: rgb(0, 0, 0);" preserveAspectRatio="xMidYMid"><defs><filter id="editing-cake" x="-100%" y="-100%" width="300%" height="300%"><feFlood flood-color="#f19a33" result="flood-shadow"></feFlood><feFlood flood-color="#000000"></feFlood><feComposite operator="in" in2="SourceAlpha"></feComposite><feConvolveMatrix order="7,10" divisor="1" result="conv" kernelMatrix="0 0 0 1 0 0 0 0 0 1 0 1 0 0 0 0 1 0 1 0 0 0 1 0 0 0 1 0 0 1 0 0 0 1 0 0 1 0 0 0 1 0 1 0 0 0 0 0 1 1 0 0 0 0 0 1 0 1 1 0 1 1 0 0 0 0 1 0 0 0 "></feConvolveMatrix><feGaussianBlur stdDeviation="0.5"></feGaussianBlur><feOffset dy="4" result="offset"></feOffset><feComposite operator="in" in="flood-shadow" in2="offset"></feComposite><feGaussianBlur stdDeviation="4"></feGaussianBlur><feComponentTransfer><feFuncA type="linear" slope="0.7" intercept="-0.2"></feFuncA></feComponentTransfer><feOffset dy="4" result="shadow"></feOffset><feGaussianBlur in="SourceGraphic" stdDeviation="0.5"></feGaussianBlur><feOffset dy="0" result="x0"></feOffset><feGaussianBlur in="SourceGraphic" stdDeviation="1"></feGaussianBlur><feComponentTransfer><feFuncA type="linear" slope="0.8" intercept="-.01"></feFuncA></feComponentTransfer><feOffset dy="1" result="x1"></feOffset><feGaussianBlur in="SourceGraphic" stdDeviation="2"></feGaussianBlur><feComponentTransfer><feFuncA type="linear" slope="0.7" intercept="-.01"></feFuncA></feComponentTransfer><feOffset dy="2" result="x2"></feOffset><feGaussianBlur in="SourceGraphic" stdDeviation="3"></feGaussianBlur><feComponentTransfer><feFuncA type="linear" slope="0.6" intercept="-.01"></feFuncA></feComponentTransfer><feOffset dy="3" result="x3"></feOffset><feMerge><feMergeNode in="shadow"></feMergeNode><feMergeNode in="offset"></feMergeNode><feMergeNode in="x3"></feMergeNode><feMergeNode in="x2"></feMergeNode><feMergeNode in="x1"></feMergeNode><feMergeNode in="x0"></feMergeNode></feMerge></filter></defs><g filter="url(#editing-cake)"><g transform="translate(123.61569121479988, 88.08000183105469)"><path d="M12.24-20.01L12.24-20.01L12.24-20.01Q19.59-20.01 19.59-14.82L19.59-14.82L19.59-14.82Q19.59-11.97 17.76-10.26L17.76-10.26L17.76-10.26Q15.96-8.55 12.81-8.55L12.81-8.55L12.81-8.55Q11.34-8.55 10.20-9.39L10.20-9.39L10.20-9.39Q9.66-9.75 9.30-10.23L9.30-10.23L9.30-10.23Q11.49-10.23 12.64-11.56L12.64-11.56L12.64-11.56Q13.80-12.90 13.80-15.51L13.80-15.51L13.80-15.51Q13.80-18.12 11.22-18.12L11.22-18.12L10.50-18.12L10.50-18.12Q10.32-18.12 10.17-18.09L10.17-18.09L6.72 0L0.21 0L3.90-19.65L3.90-19.65Q7.11-19.95 8.97-19.98L8.97-19.98L8.97-19.98Q10.83-20.01 12.24-20.01ZM25.89 0L19.47 0L23.13-19.71L23.13-19.71Q26.10-20.04 30.44-20.04L30.44-20.04L30.44-20.04Q34.77-20.04 36.78-18.78L36.78-18.78L36.78-18.78Q38.79-17.52 38.79-14.98L38.79-14.98L38.79-14.98Q38.79-12.45 37.48-10.86L37.48-10.86L37.48-10.86Q36.18-9.27 33.93-8.76L33.93-8.76L33.93-8.76Q34.44-6.27 35.61-4.26L35.61-4.26L35.61-4.26Q36.69-2.37 37.95-1.77L37.95-1.77L37.95-1.77Q37.50-0.51 36.59 0.04L36.59 0.04L36.59 0.04Q35.67 0.60 34.37 0.60L34.37 0.60L34.37 0.60Q33.06 0.60 32.04-0.16L32.04-0.16L32.04-0.16Q31.02-0.93 30.21-2.34L30.21-2.34L30.21-2.34Q28.50-5.40 28.32-10.23L28.32-10.23L28.53-10.23L28.53-10.23Q30.75-10.29 31.86-11.45L31.86-11.45L31.86-11.45Q32.97-12.60 32.97-15.03L32.97-15.03L32.97-15.03Q32.97-18.06 30.42-18.18L30.42-18.18L29.76-18.18L29.76-18.18Q29.49-18.18 29.34-18.15L29.34-18.15L25.89 0ZM40.62-7.32L40.62-7.32L40.62-7.32Q40.62-12.99 43.56-16.56L43.56-16.56L43.56-16.56Q46.68-20.43 52.11-20.43L52.11-20.43L52.11-20.43Q56.04-20.43 58.02-18.52L58.02-18.52L58.02-18.52Q60-16.62 60-12.60L60-12.60L60-12.60Q60-6.48 56.88-2.91L56.88-2.91L56.88-2.91Q53.79 0.60 48.60 0.60L48.60 0.60L48.60 0.60Q44.55 0.60 42.58-1.43L42.58-1.43L42.58-1.43Q40.62-3.45 40.62-7.32ZM48.51-13.53L48.51-13.53L48.51-13.53Q47.16-8.13 47.16-3.87L47.16-3.87L47.16-3.87Q47.16-2.85 47.50-2.19L47.50-2.19L47.50-2.19Q47.85-1.53 48.77-1.53L48.77-1.53L48.77-1.53Q49.68-1.53 50.25-1.96L50.25-1.96L50.25-1.96Q50.82-2.40 51.27-3.39L51.27-3.39L51.27-3.39Q51.99-5.01 52.66-8.45L52.66-8.45L52.66-8.45Q53.34-11.88 53.40-13.30L53.40-13.30L53.40-13.30Q53.46-14.73 53.46-15.81L53.46-15.81L53.46-15.81Q53.46-16.89 53.13-17.58L53.13-17.58L53.13-17.58Q52.80-18.27 51.91-18.27L51.91-18.27L51.91-18.27Q51.03-18.27 50.43-17.73L50.43-17.73L50.43-17.73Q49.32-16.71 48.51-13.53ZM57.69 4.14L57.69 4.14L57.69 4.14Q59.22 3.96 60.18 1.98L60.18 1.98L60.18 1.98Q61.17-0.03 62.07-4.65L62.07-4.65L64.98-19.80L71.49-19.80L68.58-4.65L68.58-4.65Q67.47 1.23 65.64 3.54L65.64 3.54L65.64 3.54Q64.68 4.74 63.46 5.22L63.46 5.22L63.46 5.22Q62.25 5.70 60.93 5.70L60.93 5.70L60.93 5.70Q59.61 5.70 58.75 5.22L58.75 5.22L58.75 5.22Q57.90 4.74 57.69 4.14ZM84.96-4.62L84.96-4.62L84.96-4.62Q85.53-3.90 85.53-2.73L85.53-2.73L85.53-2.73Q85.53-1.11 84.33-0.26L84.33-0.26L84.33-0.26Q83.13 0.60 81.24 0.60L81.24 0.60L81.24 0.60Q80.16 0.60 78.51 0.36L78.51 0.36L78.51 0.36Q75.27-0.15 74.28-0.15L74.28-0.15L74.28-0.15Q73.29-0.15 72.90-0.10L72.90-0.10L72.90-0.10Q72.51-0.06 71.88 0L71.88 0L75.57-19.80L88.50-19.80L88.50-19.80Q88.50-17.97 87.61-17.01L87.61-17.01L87.61-17.01Q86.73-16.05 84.99-16.05L84.99-16.05L84.99-16.05Q83.25-16.05 81.48-16.86L81.48-16.86L80.55-11.61L85.89-11.61L85.89-11.61Q85.89-10.02 85.11-9.13L85.11-9.13L85.11-9.13Q84.33-8.25 83.02-8.25L83.02-8.25L83.02-8.25Q81.72-8.25 80.91-8.55L80.91-8.55L80.91-8.55Q80.10-8.85 80.01-8.94L80.01-8.94L78.93-3.27L78.93-3.27Q79.65-3.18 81.00-3.18L81.00-3.18L81.00-3.18Q83.31-3.18 84.96-4.62ZM103.95-6.21L103.95-6.21L103.95-6.21Q104.73-5.64 104.73-4.42L104.73-4.42L104.73-4.42Q104.73-3.21 104.20-2.35L104.20-2.35L104.20-2.35Q103.68-1.50 102.66-0.84L102.66-0.84L102.66-0.84Q100.47 0.57 96.64 0.57L96.64 0.57L96.64 0.57Q92.82 0.57 90.73-1.43L90.73-1.43L90.73-1.43Q88.65-3.42 88.65-6.96L88.65-6.96L88.65-6.96Q88.65-11.97 91.26-15.78L91.26-15.78L91.26-15.78Q93.24-18.60 96.78-19.80L96.78-19.80L96.78-19.80Q98.61-20.40 100.41-20.40L100.41-20.40L100.41-20.40Q102.21-20.40 103.32-20.16L103.32-20.16L103.32-20.16Q104.43-19.92 105.27-19.44L105.27-19.44L105.27-19.44Q107.10-18.39 107.10-16.71L107.10-16.71L107.10-16.71Q107.10-15.18 105.66-14.04L105.66-14.04L105.66-14.04Q104.34-13.02 103.26-13.02L103.26-13.02L103.26-13.02Q102.18-13.02 101.73-13.17L101.73-13.17L101.73-13.17Q101.85-14.25 101.85-14.96L101.85-14.96L101.85-14.96Q101.85-15.66 101.82-16.17L101.82-16.17L101.82-16.17Q101.79-16.68 101.64-17.16L101.64-17.16L101.64-17.16Q101.34-18.27 100.42-18.27L100.42-18.27L100.42-18.27Q99.51-18.27 98.59-17.41L98.59-17.41L98.59-17.41Q97.68-16.56 96.90-15.12L96.90-15.12L96.90-15.12Q95.13-11.85 95.13-7.98L95.13-7.98L95.13-7.98Q95.13-6.12 96.18-5.05L96.18-5.05L96.18-5.05Q97.23-3.99 99.48-3.99L99.48-3.99L99.48-3.99Q101.16-3.99 102.75-5.10L102.75-5.10L102.75-5.10Q103.44-5.58 103.95-6.21ZM109.62-14.61L109.62-14.61L109.62-14.61Q108.60-15.39 108.60-17.05L108.60-17.05L108.60-17.05Q108.60-18.72 109.69-19.59L109.69-19.59L109.69-19.59Q110.79-20.46 112.68-20.46L112.68-20.46L112.68-20.46Q113.88-20.46 116.73-20.04L116.73-20.04L118.77-19.74L118.77-19.74Q119.79-19.62 120.85-19.62L120.85-19.62L120.85-19.62Q121.92-19.62 122.64-20.07L122.64-20.07L122.64-20.07Q123.72-19.11 123.72-17.73L123.72-17.73L123.72-17.73Q123.72-16.35 122.49-15.36L122.49-15.36L122.49-15.36Q121.23-14.31 119.61-14.31L119.61-14.31L119.61-14.31Q118.83-14.31 117.57-14.52L117.57-14.52L117.57-14.52Q116.10-9.90 116.10-6.69L116.10-6.69L116.10-6.69Q116.10-3.48 117.72-1.80L117.72-1.80L117.72-1.80Q116.97-0.45 115.86 0.07L115.86 0.07L115.86 0.07Q114.75 0.60 113.08 0.60L113.08 0.60L113.08 0.60Q111.42 0.60 110.38-0.32L110.38-0.32L110.38-0.32Q109.35-1.23 109.35-3.12L109.35-3.12L109.35-3.12Q109.35-5.31 110.55-8.91L110.55-8.91L110.55-8.91Q111.75-12.48 113.55-15.21L113.55-15.21L113.55-15.21Q112.68-15.30 111.78-15.30L111.78-15.30L111.78-15.30Q109.92-15.30 109.62-14.61ZM128.64-0.15L128.64-0.15L132.42-19.80L132.42-19.80Q135.96-20.10 138.24-20.10L138.24-20.10L138.24-20.10Q140.52-20.10 141.99-19.90L141.99-19.90L141.99-19.90Q143.46-19.71 144.45-19.20L144.45-19.20L144.45-19.20Q146.43-18.24 146.43-15.60L146.43-15.60L146.43-15.60Q146.43-14.07 145.11-12.78L145.11-12.78L145.11-12.78Q143.88-11.61 142.53-11.34L142.53-11.34L142.53-11.34Q143.97-11.10 144.99-10.02L144.99-10.02L144.99-10.02Q146.07-8.88 146.07-7.11L146.07-7.11L146.07-7.11Q146.07-3.69 143.52-1.69L143.52-1.69L143.52-1.69Q140.97 0.30 135.96 0.30L135.96 0.30L135.96 0.30Q132.51 0.30 128.64-0.15ZM136.80-9.66L135.30-1.89L135.30-1.89Q135.57-1.86 135.63-1.86L135.63-1.86L135.90-1.86L135.90-1.86Q138.36-1.86 139.41-3.48L139.41-3.48L139.41-3.48Q140.19-4.74 140.19-7.05L140.19-7.05L140.19-7.05Q140.19-8.28 139.39-8.94L139.39-8.94L139.39-8.94Q138.60-9.60 136.80-9.66L136.80-9.66ZM141.36-15.57L141.36-15.57L141.36-15.57Q141.36-18.06 138.96-18.06L138.96-18.06L138.69-18.06L138.69-18.06Q138.57-18.06 138.39-18.03L138.39-18.03L137.19-11.70L137.49-11.70L137.49-11.70Q141.36-11.79 141.36-15.57ZM160.86-4.62L160.86-4.62L160.86-4.62Q161.43-3.90 161.43-2.73L161.43-2.73L161.43-2.73Q161.43-1.11 160.23-0.26L160.23-0.26L160.23-0.26Q159.03 0.60 157.14 0.60L157.14 0.60L157.14 0.60Q156.06 0.60 154.41 0.36L154.41 0.36L154.41 0.36Q151.17-0.15 150.18-0.15L150.18-0.15L150.18-0.15Q149.19-0.15 148.80-0.10L148.80-0.10L148.80-0.10Q148.41-0.06 147.78 0L147.78 0L151.47-19.80L164.40-19.80L164.40-19.80Q164.40-17.97 163.51-17.01L163.51-17.01L163.51-17.01Q162.63-16.05 160.89-16.05L160.89-16.05L160.89-16.05Q159.15-16.05 157.38-16.86L157.38-16.86L156.45-11.61L161.79-11.61L161.79-11.61Q161.79-10.02 161.01-9.13L161.01-9.13L161.01-9.13Q160.23-8.25 158.92-8.25L158.92-8.25L158.92-8.25Q157.62-8.25 156.81-8.55L156.81-8.55L156.81-8.55Q156.00-8.85 155.91-8.94L155.91-8.94L154.83-3.27L154.83-3.27Q155.55-3.18 156.90-3.18L156.90-3.18L156.90-3.18Q159.21-3.18 160.86-4.62ZM177.00-4.62L177.00-4.62L177.00-4.62Q177.57-3.90 177.57-2.73L177.57-2.73L177.57-2.73Q177.57-1.11 176.37-0.26L176.37-0.26L176.37-0.26Q175.17 0.60 173.28 0.60L173.28 0.60L173.28 0.60Q172.20 0.60 170.55 0.36L170.55 0.36L170.55 0.36Q167.31-0.15 166.32-0.15L166.32-0.15L166.32-0.15Q165.33-0.15 164.94-0.10L164.94-0.10L164.94-0.10Q164.55-0.06 163.92 0L163.92 0L167.61-19.80L180.54-19.80L180.54-19.80Q180.54-17.97 179.65-17.01L179.65-17.01L179.65-17.01Q178.77-16.05 177.03-16.05L177.03-16.05L177.03-16.05Q175.29-16.05 173.52-16.86L173.52-16.86L172.59-11.61L177.93-11.61L177.93-11.61Q177.93-10.02 177.15-9.13L177.15-9.13L177.15-9.13Q176.37-8.25 175.06-8.25L175.06-8.25L175.06-8.25Q173.76-8.25 172.95-8.55L172.95-8.55L172.95-8.55Q172.14-8.85 172.05-8.94L172.05-8.94L170.97-3.27L170.97-3.27Q171.69-3.18 173.04-3.18L173.04-3.18L173.04-3.18Q175.35-3.18 177.00-4.62ZM197.70-2.25L197.70-2.25L197.70-2.25Q197.70-4.35 198.54-8.55L198.54-8.55L194.10-8.55L192.45 0L186.18 0L189.99-19.80L196.32-19.80L194.58-10.95L199.02-10.95L200.67-19.80L207.00-19.80L207.00-19.80Q206.58-17.58 206.04-15.09L206.04-15.09L205.02-10.20L205.02-10.20Q203.88-4.50 203.88-2.01L203.88-2.01L203.88-2.01Q203.88-0.99 204.21-0.42L204.21-0.42L204.21-0.42Q202.71 0.60 200.95 0.60L200.95 0.60L200.95 0.60Q199.20 0.60 198.45-0.24L198.45-0.24L198.45-0.24Q197.70-1.08 197.70-2.25ZM213.93 0L207.39 0L211.20-19.80L217.80-19.80L213.93 0ZM219.21-18.60L219.21-18.60L219.21-18.60Q220.08-20.40 222.49-20.40L222.49-20.40L222.49-20.40Q224.91-20.40 226.03-19.00L226.03-19.00L226.03-19.00Q227.16-17.61 227.16-14.40L227.16-14.40L227.16-3.69L234.45-19.77L238.02-19.77L228.69 0L221.67 0L220.77-14.40L220.77-14.40Q220.68-15.99 220.24-17.07L220.24-17.07L220.24-17.07Q219.81-18.15 219.21-18.60ZM249.63-4.62L249.63-4.62L249.63-4.62Q250.20-3.90 250.20-2.73L250.20-2.73L250.20-2.73Q250.20-1.11 249.00-0.26L249.00-0.26L249.00-0.26Q247.80 0.60 245.91 0.60L245.91 0.60L245.91 0.60Q244.83 0.60 243.18 0.36L243.18 0.36L243.18 0.36Q239.94-0.15 238.95-0.15L238.95-0.15L238.95-0.15Q237.96-0.15 237.57-0.10L237.57-0.10L237.57-0.10Q237.18-0.06 236.55 0L236.55 0L240.24-19.80L253.17-19.80L253.17-19.80Q253.17-17.97 252.28-17.01L252.28-17.01L252.28-17.01Q251.40-16.05 249.66-16.05L249.66-16.05L249.66-16.05Q247.92-16.05 246.15-16.86L246.15-16.86L245.22-11.61L250.56-11.61L250.56-11.61Q250.56-10.02 249.78-9.13L249.78-9.13L249.78-9.13Q249.00-8.25 247.69-8.25L247.69-8.25L247.69-8.25Q246.39-8.25 245.58-8.55L245.58-8.55L245.58-8.55Q244.77-8.85 244.68-8.94L244.68-8.94L243.60-3.27L243.60-3.27Q244.32-3.18 245.67-3.18L245.67-3.18L245.67-3.18Q247.98-3.18 249.63-4.62Z" fill="#fefefe"></path></g></g><style>text {
  font-size: 64px;
  font-family: Arial Black;
  dominant-baseline: central;
  text-anchor: middle;
}</style></svg>